<svg id="Layer_1" data-name="Layer 1" xmlns="http://www.w3.org/2000/svg" viewBox="0 0 338.84 51.43"><path d="M.75,40v-.4H2.2a4.79,4.79,0,0,0,.86-.07,1.16,1.16,0,0,0,.58-.32,1.61,1.61,0,0,0,.4-.63,5.41,5.41,0,0,0,.23-1.16c.06-.52.1-1.1.11-1.71s0-1.44,0-2.46V16.78c0-1,0-1.85,0-2.47s0-1.19-.11-1.71A5.55,5.55,0,0,0,4,11.44a1.61,1.61,0,0,0-.4-.63,1.16,1.16,0,0,0-.58-.32,4.93,4.93,0,0,0-.86-.06H.75V10h11.5a19.77,19.77,0,0,1,6.67,1.07,14.78,14.78,0,0,1,5.16,3,13.53,13.53,0,0,1,3.3,4.73A15.68,15.68,0,0,1,28.55,25a15.75,15.75,0,0,1-1.17,6.13,13.7,13.7,0,0,1-3.3,4.75,14.8,14.8,0,0,1-5.16,3A19.53,19.53,0,0,1,12.25,40ZM9,39.23H11.1q6.75,0,10.3-3.66T25,25a14.55,14.55,0,0,0-1.06-5.53A14.25,14.25,0,0,0,21,14.93a13.54,13.54,0,0,0-4.31-3,12.65,12.65,0,0,0-5.26-1.12H7.1v.05a2.13,2.13,0,0,1,.54.81,3.29,3.29,0,0,1,.16,1.14V37.23C7.8,38.56,8.18,39.23,9,39.23Z"/><path d="M34.25,33.28v-16a1.55,1.55,0,0,0-.37-1.09,1.23,1.23,0,0,0-1-.41H31.35v-.4H37a.54.54,0,0,1,.39.11.55.55,0,0,1,.11.39V33.28c0,.75,0,1.39,0,1.91s0,1,.06,1.47.08.84.12,1.12a3.71,3.71,0,0,0,.19.78,2,2,0,0,0,.28.53,1.08,1.08,0,0,0,.4.3,1.63,1.63,0,0,0,.52.15,4.22,4.22,0,0,0,.67,0h1.5V40H30.6v-.4h1.45a4.93,4.93,0,0,0,.86-.06,1.12,1.12,0,0,0,.59-.32,1.51,1.51,0,0,0,.4-.62,6.33,6.33,0,0,0,.22-1.15c.06-.53.1-1.09.11-1.7S34.25,34.31,34.25,33.28ZM35.9,7.08a1.84,1.84,0,0,1,1.34.47,1.73,1.73,0,0,1,.51,1.33,1.92,1.92,0,0,1-.5,1.36,1.74,1.74,0,0,1-1.35.54A1.82,1.82,0,0,1,34,8.88a1.73,1.73,0,0,1,.52-1.32A1.93,1.93,0,0,1,35.9,7.08Z"/><path d="M43.45,35.12a5.84,5.84,0,0,1,2.75-5.2q2.74-1.8,8-1.8h3.5V21.33a5.79,5.79,0,0,0-1.27-4.07,4.75,4.75,0,0,0-3.68-1.38,6.35,6.35,0,0,0-4.6,1.57,6.05,6.05,0,0,0-1.8,4.13l-.2,2.5H45.4l.45-8.65a4.93,4.93,0,0,0,1.2.15c.37,0,1.18-.09,2.44-.25a24.38,24.38,0,0,1,3.21-.25,9.58,9.58,0,0,1,6.2,1.75,6.14,6.14,0,0,1,2.15,5.05V37.63a1.49,1.49,0,0,0,.32,1.06,1.16,1.16,0,0,0,1.69,0,1.57,1.57,0,0,0,.34-1.06v-.65h.4v.65A2.46,2.46,0,0,1,63,39.41a2.56,2.56,0,0,1-1.87.77,2.15,2.15,0,0,1-1.61-.71,2.66,2.66,0,0,1-.74-1.74l-.25-4.15h-.4a11.32,11.32,0,0,1-.92,2.65,8.07,8.07,0,0,1-1.33,1.93,7.06,7.06,0,0,1-1.64,1.25,6.68,6.68,0,0,1-1.79.71,7.88,7.88,0,0,1-1.82.21,8.7,8.7,0,0,1-5.27-1.43A4.46,4.46,0,0,1,43.45,35.12Zm3.35,0a3.75,3.75,0,0,0,1.25,2.94,4.51,4.51,0,0,0,3.1,1.12A5.93,5.93,0,0,0,53,38.87a5.6,5.6,0,0,0,1.77-1,7.05,7.05,0,0,0,1.5-1.66,8.08,8.08,0,0,0,1-2.44,12.36,12.36,0,0,0,.39-3.2v-1.7H54.4a8.71,8.71,0,0,0-5.64,1.6A5.65,5.65,0,0,0,46.8,35.12Z"/><path d="M65.6,40v-.4h1.45a4.22,4.22,0,0,0,.67,0,1.43,1.43,0,0,0,.52-.16,1.52,1.52,0,0,0,.39-.29,1.49,1.49,0,0,0,.27-.54,4.8,4.8,0,0,0,.18-.79c0-.27.07-.65.1-1.13s0-1,.06-1.48,0-1.15,0-1.92V17.88a1.65,1.65,0,0,0-.33-1.12,1.05,1.05,0,0,0-.82-.37,1.08,1.08,0,0,0-.85.4,1.66,1.66,0,0,0-.35,1.09v1.55h-.4V17.88A2.36,2.36,0,0,1,67.32,16a2.94,2.94,0,0,1,2-.68,2.89,2.89,0,0,1,1.8.57,1.93,1.93,0,0,1,.75,1.63v1.8c0,.45,0,1.24,0,2.38s0,1.79-.07,2h.3a14,14,0,0,1,.7-2.69,8.77,8.77,0,0,1,3-4.27,7.4,7.4,0,0,1,4.64-1.58,7.27,7.27,0,0,1,5.16,1.7,5.93,5.93,0,0,1,1.84,4.6V33.23c0,.77,0,1.41,0,1.92s0,1,.06,1.48.06.86.1,1.13a4.8,4.8,0,0,0,.18.79,1.49,1.49,0,0,0,.27.54,1.24,1.24,0,0,0,.39.29,1.43,1.43,0,0,0,.52.16,4.22,4.22,0,0,0,.67,0h1.1V40H80.45v-.4H81.9a4.22,4.22,0,0,0,.67,0,1.43,1.43,0,0,0,.52-.16,1.52,1.52,0,0,0,.39-.29,1.49,1.49,0,0,0,.27-.54,4.8,4.8,0,0,0,.18-.79c0-.27.07-.65.1-1.13s0-1,.06-1.48,0-1.15,0-1.92V22.53a9.14,9.14,0,0,0-1-4.73A3.41,3.41,0,0,0,80,16.23a6.36,6.36,0,0,0-3,.7,7.06,7.06,0,0,0-2.38,1.95A9.39,9.39,0,0,0,73.07,22a13.45,13.45,0,0,0-.57,4v7.25c0,1,0,1.85,0,2.47s.06,1.2.12,1.72a6.16,6.16,0,0,0,.23,1.15,1.47,1.47,0,0,0,.41.62,1.17,1.17,0,0,0,.61.32,4.7,4.7,0,0,0,.86.07h1.5V40Z"/><path d="M92.5,35.12a5.84,5.84,0,0,1,2.75-5.2q2.75-1.8,8-1.8h3.5V21.33a5.79,5.79,0,0,0-1.27-4.07,4.75,4.75,0,0,0-3.68-1.38,6.35,6.35,0,0,0-4.6,1.57,6.05,6.05,0,0,0-1.8,4.13l-.2,2.5h-.75l.45-8.65a4.93,4.93,0,0,0,1.2.15c.36,0,1.18-.09,2.44-.25a24.26,24.26,0,0,1,3.21-.25,9.6,9.6,0,0,1,6.2,1.75,6.14,6.14,0,0,1,2.15,5.05V37.63a1.49,1.49,0,0,0,.32,1.06,1.1,1.1,0,0,0,.83.34,1.07,1.07,0,0,0,.85-.39,1.52,1.52,0,0,0,.35-1.06v-.65h.4v.65a2.46,2.46,0,0,1-.78,1.83,2.56,2.56,0,0,1-1.87.77,2.15,2.15,0,0,1-1.61-.71,2.66,2.66,0,0,1-.74-1.74l-.25-4.15h-.4a11.32,11.32,0,0,1-.92,2.65A8.07,8.07,0,0,1,105,38.16a7.06,7.06,0,0,1-1.64,1.25,6.81,6.81,0,0,1-1.79.71,7.88,7.88,0,0,1-1.82.21,8.7,8.7,0,0,1-5.27-1.43A4.46,4.46,0,0,1,92.5,35.12Zm3.35,0a3.72,3.72,0,0,0,1.25,2.94,4.49,4.49,0,0,0,3.1,1.12,5.93,5.93,0,0,0,1.85-.31,5.6,5.6,0,0,0,1.77-1,7.05,7.05,0,0,0,1.5-1.66,8.08,8.08,0,0,0,1-2.44,12.36,12.36,0,0,0,.39-3.2v-1.7h-3.3a8.71,8.71,0,0,0-5.64,1.6A5.65,5.65,0,0,0,95.85,35.12Z"/><path d="M114.45,40v-.4h1.45a4.22,4.22,0,0,0,.67,0,1.43,1.43,0,0,0,.52-.16,1.52,1.52,0,0,0,.39-.29,1.49,1.49,0,0,0,.27-.54,4.8,4.8,0,0,0,.18-.79c0-.27.07-.65.1-1.13s0-1,.06-1.48,0-1.15,0-1.92V11.58c0-.88,0-1.58,0-2.12s0-1-.07-1.45a7.88,7.88,0,0,0-.13-1,1.48,1.48,0,0,0-.24-.54.61.61,0,0,0-.33-.26,1.49,1.49,0,0,0-.47-.05H114.9V5.83h2.4a6.91,6.91,0,0,0,1.3-.12,5.07,5.07,0,0,0,1.18-.37,2.07,2.07,0,0,0,.89-.7A1.76,1.76,0,0,0,121,3.58V3.43h.35v9.4c0,1.19-.06,2.68-.19,4.48s-.24,3.2-.34,4.23-.18,1.72-.22,2.08h.3a12.73,12.73,0,0,1,.65-2.69,8.69,8.69,0,0,1,3-4.26,7.5,7.5,0,0,1,4.67-1.59,7.27,7.27,0,0,1,5.16,1.7,5.93,5.93,0,0,1,1.84,4.6V33.23c0,.77,0,1.41,0,1.92s0,1,.06,1.48.06.86.1,1.13a3.37,3.37,0,0,0,.18.79,1.49,1.49,0,0,0,.27.54,1.24,1.24,0,0,0,.39.29,1.43,1.43,0,0,0,.52.16,4.22,4.22,0,0,0,.67,0h1.5V40H129.3v-.4h1.45a4.22,4.22,0,0,0,.67,0,1.43,1.43,0,0,0,.52-.16,1.52,1.52,0,0,0,.39-.29,1.49,1.49,0,0,0,.27-.54,4.8,4.8,0,0,0,.18-.79c0-.27.07-.65.1-1.13s.05-1,.06-1.48,0-1.15,0-1.92V22.53a9.14,9.14,0,0,0-1-4.73,3.41,3.41,0,0,0-3.12-1.57,6.36,6.36,0,0,0-3,.7,7.19,7.19,0,0,0-2.39,1.95A9.57,9.57,0,0,0,121.92,22a13.45,13.45,0,0,0-.57,4v7.25c0,1,0,1.85,0,2.47s.06,1.2.12,1.72a5.43,5.43,0,0,0,.23,1.15,1.38,1.38,0,0,0,.41.62,1.17,1.17,0,0,0,.61.32,4.7,4.7,0,0,0,.86.07h1.45V40Z"/><path d="M152.7,24.88a16,16,0,0,1,2-7.69A15.78,15.78,0,0,1,157,14.12a15.42,15.42,0,0,1,2.94-2.38,14.15,14.15,0,0,1,7.36-2.06,23.09,23.09,0,0,1,3.57.37,23.07,23.07,0,0,0,3.18.38,7.88,7.88,0,0,0,1.85-.2l.3,10.65h-.75l-.1-3.6a6,6,0,0,0-.78-2.8,7.05,7.05,0,0,0-1.93-2.2,9.43,9.43,0,0,0-2.67-1.4,9.24,9.24,0,0,0-3-.5,9.13,9.13,0,0,0-5.5,1.72A11.06,11.06,0,0,0,157.7,17a18.81,18.81,0,0,0-1.3,7.26,22.75,22.75,0,0,0,.43,4.55,16.33,16.33,0,0,0,1.22,3.73,14.25,14.25,0,0,0,1.84,2.89,10.2,10.2,0,0,0,2.31,2.08,10.46,10.46,0,0,0,2.6,1.23,9.17,9.17,0,0,0,2.75.42,11,11,0,0,0,5.51-1.37,8.34,8.34,0,0,0,3.59-3.88l.7.24a9.1,9.1,0,0,1-3.91,4.61,11.94,11.94,0,0,1-6.14,1.6,15,15,0,0,1-7.65-1.93A13.08,13.08,0,0,1,154.52,33,17.21,17.21,0,0,1,152.7,24.88Z"/><path d="M179,40v-.4h1.45a4.3,4.3,0,0,0,.67,0,1.38,1.38,0,0,0,.51-.16,1.42,1.42,0,0,0,.4-.29,1.91,1.91,0,0,0,.27-.54,4.8,4.8,0,0,0,.18-.79c0-.27.07-.65.1-1.13s.05-1,.05-1.48,0-1.15,0-1.92V11.58c0-.88,0-1.58,0-2.12s0-1-.06-1.45a7.88,7.88,0,0,0-.13-1,1.67,1.67,0,0,0-.24-.54.61.61,0,0,0-.33-.26,1.49,1.49,0,0,0-.47-.05H179.4V5.83h2.4a6.91,6.91,0,0,0,1.3-.12,5.23,5.23,0,0,0,1.18-.37,2.07,2.07,0,0,0,.89-.7,1.76,1.76,0,0,0,.33-1.06V3.43h.35v9.4c0,1.19-.06,2.68-.19,4.48s-.24,3.2-.34,4.23-.18,1.72-.22,2.08h.3a12.73,12.73,0,0,1,.65-2.69,8.69,8.69,0,0,1,3-4.26,7.5,7.5,0,0,1,4.67-1.59,7.28,7.28,0,0,1,5.16,1.7,6,6,0,0,1,1.84,4.6V33.23c0,.77,0,1.41,0,1.92s0,1,.06,1.48.06.86.1,1.13a3.37,3.37,0,0,0,.18.79,1.49,1.49,0,0,0,.27.54,1.24,1.24,0,0,0,.39.29,1.43,1.43,0,0,0,.52.16,4.22,4.22,0,0,0,.67,0h1.5V40H193.8v-.4h1.45a4.3,4.3,0,0,0,.67,0,1.32,1.32,0,0,0,.51-.16,1.42,1.42,0,0,0,.4-.29,1.91,1.91,0,0,0,.27-.54,4.8,4.8,0,0,0,.18-.79c0-.27.07-.65.1-1.13s.05-1,.05-1.48,0-1.15,0-1.92V22.53a9.14,9.14,0,0,0-1-4.73,3.41,3.41,0,0,0-3.12-1.57,6.36,6.36,0,0,0-3,.7A7.09,7.09,0,0,0,188,18.88,9.57,9.57,0,0,0,186.42,22a13.45,13.45,0,0,0-.57,4v7.25c0,1,0,1.85,0,2.47s.06,1.2.12,1.72a5.43,5.43,0,0,0,.23,1.15,1.38,1.38,0,0,0,.41.62,1.18,1.18,0,0,0,.6.32,4.91,4.91,0,0,0,.87.07h1.45V40Z"/><path d="M219.8,40.33a15.83,15.83,0,0,1-5.48-.92,12.09,12.09,0,0,1-4.24-2.56,11.16,11.16,0,0,1-2.71-4,13.36,13.36,0,0,1-1-5.16A11.89,11.89,0,0,1,209,20.24a14.64,14.64,0,0,1,2.89-2.72,13.21,13.21,0,0,1,3.69-1.81,14.17,14.17,0,0,1,4.21-.63,15.82,15.82,0,0,1,5.47.91,12.22,12.22,0,0,1,4.24,2.55,11.41,11.41,0,0,1,2.72,4,13.46,13.46,0,0,1,1,5.15,11.72,11.72,0,0,1-1.07,4.9,12.76,12.76,0,0,1-2.85,4A13.42,13.42,0,0,1,225,39.32,13.72,13.72,0,0,1,219.8,40.33Zm.1-.75a9.38,9.38,0,0,0,5.09-1.4,9.2,9.2,0,0,0,3.44-3.94,13.49,13.49,0,0,0,1.22-5.86,14.59,14.59,0,0,0-1.35-6.27,11.55,11.55,0,0,0-3.67-4.55,8.38,8.38,0,0,0-5-1.68,9.31,9.31,0,0,0-5.07,1.38,9,9,0,0,0-3.38,3.92A13.53,13.53,0,0,0,210,27a15.07,15.07,0,0,0,.78,4.85,13.41,13.41,0,0,0,2.12,4A10.22,10.22,0,0,0,216,38.58,8.12,8.12,0,0,0,219.9,39.58Z"/><path d="M235.65,40v-.4h1.45a4.3,4.3,0,0,0,.67,0,1.38,1.38,0,0,0,.51-.16,1.42,1.42,0,0,0,.4-.29,1.91,1.91,0,0,0,.27-.54,4.8,4.8,0,0,0,.18-.79c0-.27.07-.65.1-1.13s.05-1,.05-1.48,0-1.15,0-1.92V17.33a1.6,1.6,0,0,0-.37-1.09,1.25,1.25,0,0,0-1-.41H236.4v-.4h5a.84.84,0,0,1,.58.16.85.85,0,0,1,.17.59v3.1c0,.71,0,1.45-.1,2.21a8,8,0,0,1-.25,1.59v.1h.35a12.26,12.26,0,0,1,2.83-6,6.28,6.28,0,0,1,4.72-2.13c2.36,0,3.55.78,3.55,2.35a2.2,2.2,0,0,1-.6,1.55,1.91,1.91,0,0,1-1.45.64,2,2,0,0,1-1.52-.63,2.05,2.05,0,0,1-.63-1.51,2.12,2.12,0,0,1,.14-.7,1.7,1.7,0,0,1,.36-.6v-.06a5.36,5.36,0,0,0-3.69,1.46,9.47,9.47,0,0,0-2.48,4.12,19.46,19.46,0,0,0-.88,6.13v5.45c0,1,0,1.84,0,2.47s.06,1.2.12,1.72a6.33,6.33,0,0,0,.22,1.15,1.49,1.49,0,0,0,.42.62,1.18,1.18,0,0,0,.6.32,4.91,4.91,0,0,0,.87.07h2.65V40Z"/><path d="M253.7,40v-.4h1.45a4.08,4.08,0,0,0,.66,0,1.68,1.68,0,0,0,.53-.15,1.27,1.27,0,0,0,.4-.3,1.73,1.73,0,0,0,.27-.53,3.71,3.71,0,0,0,.2-.78c0-.28.08-.65.11-1.12s.06-.95.06-1.47,0-1.16,0-1.91V7.43a1.26,1.26,0,0,0-.33-.93,1.23,1.23,0,0,0-.92-.32H254.2V5.83h2.4a6.94,6.94,0,0,0,1.31-.12,5.48,5.48,0,0,0,1.19-.37,2.13,2.13,0,0,0,.91-.7,1.77,1.77,0,0,0,.34-1.06V3.43h.3V33.28c0,.75,0,1.39,0,1.91s0,1,.06,1.47.07.84.11,1.12a4.45,4.45,0,0,0,.2.78,2.34,2.34,0,0,0,.27.53,1.27,1.27,0,0,0,.4.3,1.68,1.68,0,0,0,.53.15,4.22,4.22,0,0,0,.67,0h1.5V40Z"/><path d="M272.8,16.83V34.58a5.3,5.3,0,0,0,.95,3.3,3,3,0,0,0,2.5,1.25,4,4,0,0,0,3.2-1.34,5.27,5.27,0,0,0,1.15-3.56V33h.75v1.25a6.46,6.46,0,0,1-1.47,4.42A4.91,4.91,0,0,1,276,40.33a6.08,6.08,0,0,1-6.4-6.45V16.83h-5v-1H267a3.83,3.83,0,0,0,1.68-.38,4,4,0,0,0,1.32-1,7.67,7.67,0,0,0,.95-1.29,7,7,0,0,0,.64-1.4,12,12,0,0,0,.34-1.23,4,4,0,0,0,.12-.83V5h.75v8.59c0,1-.17,1.61-.5,1.76v0h10.35l-.25,1.4Z"/><path d="M297.65,40.33a15.83,15.83,0,0,1-5.48-.92,12.09,12.09,0,0,1-4.24-2.56,11.16,11.16,0,0,1-2.71-4,13.36,13.36,0,0,1-1-5.16,11.89,11.89,0,0,1,2.61-7.44,14.64,14.64,0,0,1,2.89-2.72,13.21,13.21,0,0,1,3.69-1.81,14.17,14.17,0,0,1,4.21-.63,15.82,15.82,0,0,1,5.47.91,12.22,12.22,0,0,1,4.24,2.55,11.41,11.41,0,0,1,2.72,4,13.46,13.46,0,0,1,1,5.15,11.72,11.72,0,0,1-1.07,4.9,12.76,12.76,0,0,1-2.85,4,13.42,13.42,0,0,1-4.28,2.71A13.72,13.72,0,0,1,297.65,40.33Zm.1-.75a9.38,9.38,0,0,0,5.09-1.4,9.2,9.2,0,0,0,3.44-3.94,13.49,13.49,0,0,0,1.22-5.86,14.59,14.59,0,0,0-1.35-6.27,11.55,11.55,0,0,0-3.67-4.55,8.38,8.38,0,0,0-5-1.68,9.31,9.31,0,0,0-5.07,1.38A9,9,0,0,0,289,21.18,13.53,13.53,0,0,0,287.8,27a15.07,15.07,0,0,0,.78,4.85,13.41,13.41,0,0,0,2.12,4,10.22,10.22,0,0,0,3.17,2.69A8.12,8.12,0,0,0,297.75,39.58Z"/><path d="M313.49,40v-.4H315a4.16,4.16,0,0,0,.66,0,1.37,1.37,0,0,0,.52-.16,1.42,1.42,0,0,0,.4-.29,1.91,1.91,0,0,0,.27-.54,4.8,4.8,0,0,0,.18-.79c0-.27.07-.65.1-1.13s0-1,.05-1.48,0-1.15,0-1.92V17.88a1.65,1.65,0,0,0-.34-1.12,1,1,0,0,0-.82-.37,1.06,1.06,0,0,0-.84.4,1.61,1.61,0,0,0-.35,1.09v1.55h-.4V17.88a2.39,2.39,0,0,1,.81-1.92,3,3,0,0,1,2-.68,2.86,2.86,0,0,1,1.79.57,1.93,1.93,0,0,1,.75,1.63v1.8c0,.45,0,1.24,0,2.38s0,1.79-.06,2h.3a13.25,13.25,0,0,1,.7-2.69,8.64,8.64,0,0,1,3-4.27,8.13,8.13,0,0,1,9.8.12,6,6,0,0,1,1.83,4.6V33.23c0,.77,0,1.41,0,1.92s0,1,.05,1.48.07.86.1,1.13a4.8,4.8,0,0,0,.18.79,1.91,1.91,0,0,0,.27.54,1.42,1.42,0,0,0,.4.29,1.37,1.37,0,0,0,.52.16,4.22,4.22,0,0,0,.67,0h1.1V40H328.34v-.4h1.46a4.16,4.16,0,0,0,.66,0,1.59,1.59,0,0,0,.92-.45,1.91,1.91,0,0,0,.27-.54,4.8,4.8,0,0,0,.18-.79c0-.27.07-.65.1-1.13s.05-1,.05-1.48,0-1.15,0-1.92V22.53a9,9,0,0,0-1-4.73,3.39,3.39,0,0,0-3.11-1.57,6.43,6.43,0,0,0-3,.7,7.16,7.16,0,0,0-2.38,1.95A9.37,9.37,0,0,0,321,22a13.45,13.45,0,0,0-.57,4v7.25c0,1,0,1.85,0,2.47s.06,1.2.12,1.72a6.33,6.33,0,0,0,.22,1.15,1.49,1.49,0,0,0,.42.62,1.11,1.11,0,0,0,.6.32,4.91,4.91,0,0,0,.87.07h1.5V40Z"/></svg>