<svg id="Layer_1" data-name="Layer 1" xmlns="http://www.w3.org/2000/svg" width="157px" height="50px"  viewBox="0 0 108.0938 11.8086"><path d="M0,11.6963v-.1279H.4639a1.4607,1.4607,0,0,0,.2744-.0205.3683.3683,0,0,0,.1875-.1036.5066.5066,0,0,0,.1279-.2021,1.7911,1.7911,0,0,0,.0723-.37,5.4306,5.4306,0,0,0,.0361-.5479q.0058-.2958.0059-.7881V4.2725q0-.4923-.0059-.7881a5.4306,5.4306,0,0,0-.0361-.5479,1.7767,1.7767,0,0,0-.0723-.37.5066.5066,0,0,0-.1279-.2021A.3694.3694,0,0,0,.7383,2.26a1.555,1.555,0,0,0-.2744-.02H0V2.1123H3.68a6.3631,6.3631,0,0,1,2.1367.3438,4.7622,4.7622,0,0,1,1.6494.9658A4.2743,4.2743,0,0,1,8.52,4.9365a4.984,4.984,0,0,1,.377,1.96A5.0072,5.0072,0,0,1,8.52,8.8584a4.3024,4.3024,0,0,1-1.0537,1.52,4.7322,4.7322,0,0,1-1.6494.9727,6.338,6.338,0,0,1-2.1367.3457Zm2.624-.24h.6875a4.3878,4.3878,0,0,0,3.2969-1.17,4.6744,4.6744,0,0,0,1.1357-3.39,4.672,4.672,0,0,0-.34-1.7686A4.5722,4.5722,0,0,0,6.4863,3.68a4.3388,4.3388,0,0,0-1.3779-.9678,4.0587,4.0587,0,0,0-1.6846-.36H2.0322v.0166a.7287.7287,0,0,1,.1739.2617,1.09,1.09,0,0,1,.05.3623v7.8242Q2.2559,11.4566,2.624,11.4561Z"/><path d="M10.72,9.5527V4.4482A.5028.5028,0,0,0,10.6016,4.1a.4.4,0,0,0-.3135-.1318H9.792V3.84H11.6a.1344.1344,0,0,1,.16.16V9.5527c0,.2422.0009.4463.0039.6114s.01.3232.0205.4726.0224.2686.0351.3574a1.2488,1.2488,0,0,0,.0625.2481.6162.6162,0,0,0,.0879.17.37.37,0,0,0,.128.0957.502.502,0,0,0,.1679.0508,1.8837,1.8837,0,0,0,.2139.01H12.96v.1279H9.5518v-.1279h.4638A1.5688,1.5688,0,0,0,10.29,11.55a.3663.3663,0,0,0,.19-.1016.4915.4915,0,0,0,.1279-.2,1.8334,1.8334,0,0,0,.07-.3681,5.3872,5.3872,0,0,0,.0362-.542Q10.72,10.0478,10.72,9.5527ZM11.248,1.168a.6021.6021,0,0,1,.43.1523.5512.5512,0,0,1,.1621.4238.6128.6128,0,0,1-.16.4375.5614.5614,0,0,1-.4317.17.5963.5963,0,0,1-.4384-.168.5885.5885,0,0,1-.17-.44.5493.5493,0,0,1,.1661-.42A.6165.6165,0,0,1,11.248,1.168Z"/><path d="M13.6641,10.1445a1.8663,1.8663,0,0,1,.88-1.666,4.6987,4.6987,0,0,1,2.56-.5742h1.12V5.7285a1.8644,1.8644,0,0,0-.4062-1.3027A1.521,1.521,0,0,0,16.64,3.9844a2.035,2.035,0,0,0-1.4716.5039,1.9236,1.9236,0,0,0-.5762,1.3193l-.0645.8008h-.2392L14.4316,3.84a1.5623,1.5623,0,0,0,.3838.0479,7.7986,7.7986,0,0,0,.78-.08,8.1106,8.1106,0,0,1,1.0283-.0791,3.0742,3.0742,0,0,1,1.9834.56,1.9622,1.9622,0,0,1,.6885,1.6162v5.04a.474.474,0,0,0,.1035.3418.3743.3743,0,0,0,.5381-.0156.4927.4927,0,0,0,.11-.3418v-.208h.1279v.208a.7978.7978,0,0,1-.2481.5879.8254.8254,0,0,1-.6.2441.6925.6925,0,0,1-.5166-.2265.8533.8533,0,0,1-.2353-.5576l-.08-1.3282h-.1279a3.562,3.562,0,0,1-.295.8477,2.4549,2.4549,0,0,1-.4257.6182,2.3051,2.3051,0,0,1-.5235.4023,2.2228,2.2228,0,0,1-.5722.2256,2.5771,2.5771,0,0,1-.584.0664,2.7882,2.7882,0,0,1-1.6866-.4561A1.4321,1.4321,0,0,1,13.6641,10.1445Zm1.0713,0a1.1977,1.1977,0,0,0,.4.9395,1.4388,1.4388,0,0,0,.9922.3564,1.8135,1.8135,0,0,0,1.1582-.414,2.276,2.276,0,0,0,.4815-.5323,2.63,2.63,0,0,0,.332-.78,3.9672,3.9672,0,0,0,.124-1.0254v-.544H17.168a2.7845,2.7845,0,0,0-1.8047.5137A1.8117,1.8117,0,0,0,14.7354,10.1445Z"/><path d="M20.752,11.6963v-.1279h.4638a1.8612,1.8612,0,0,0,.2139-.01.4642.4642,0,0,0,.166-.0527.4086.4086,0,0,0,.126-.0938.49.49,0,0,0,.0859-.1719,1.387,1.387,0,0,0,.0586-.2519c.0117-.0879.0225-.209.0322-.3623s.0147-.3106.0176-.4737.0039-.3681.0039-.6162V4.624a.5216.5216,0,0,0-.1064-.3564.3362.3362,0,0,0-.2617-.1192.3442.3442,0,0,0-.2715.13.508.508,0,0,0-.1123.3457V5.12H21.04V4.624a.7564.7564,0,0,1,.2618-.6123.9533.9533,0,0,1,.6337-.22.9214.9214,0,0,1,.5762.1836.6186.6186,0,0,1,.24.5205v.5762q0,.2152-.01.7617c-.0068.3642-.0147.5742-.0225.63h.0967A4.4609,4.4609,0,0,1,23.04,5.6a2.8,2.8,0,0,1,.9483-1.3633,2.3687,2.3687,0,0,1,1.4834-.5078,2.3381,2.3381,0,0,1,1.6523.544,1.9068,1.9068,0,0,1,.5879,1.4716v3.792q0,.3722.0039.6162c.003.1631.0088.32.0186.4737s.02.2744.0312.3623a1.3954,1.3954,0,0,0,.0586.2519.4877.4877,0,0,0,.086.1719.4068.4068,0,0,0,.1259.0938.4648.4648,0,0,0,.166.0527,1.8742,1.8742,0,0,0,.2139.01h.3516v.1279H25.5039v-.1279h.4639a1.8593,1.8593,0,0,0,.2138-.01.4647.4647,0,0,0,.1661-.0527.4068.4068,0,0,0,.1259-.0938.4877.4877,0,0,0,.086-.1719,1.3233,1.3233,0,0,0,.0586-.2519c.0117-.0879.0224-.209.0322-.3623s.0146-.3106.0176-.4737.0039-.3681.0039-.6162V6.1123A2.9149,2.9149,0,0,0,26.3584,4.6a1.09,1.09,0,0,0-.998-.5039,2.059,2.059,0,0,0-.9483.2246,2.2943,2.2943,0,0,0-.7617.626,2.9962,2.9962,0,0,0-.5068.9873A4.2862,4.2862,0,0,0,22.96,7.2158v2.32q0,.4923.0078.792c.0058.2.0185.3838.0381.55a1.8445,1.8445,0,0,0,.0722.3682.4917.4917,0,0,0,.1319.2.3911.3911,0,0,0,.1943.1016,1.4859,1.4859,0,0,0,.2754.0205h.48v.1279Z"/><path d="M29.3594,10.1445a1.8683,1.8683,0,0,1,.88-1.666,4.7043,4.7043,0,0,1,2.56-.5742h1.12V5.7285a1.8644,1.8644,0,0,0-.4062-1.3027,1.521,1.521,0,0,0-1.1778-.4414,2.0375,2.0375,0,0,0-1.4726.5039,1.928,1.928,0,0,0-.5762,1.3193l-.0635.8008h-.24L30.1279,3.84a1.5623,1.5623,0,0,0,.3838.0479,7.827,7.827,0,0,0,.78-.08,8.11,8.11,0,0,1,1.0273-.0791,3.0772,3.0772,0,0,1,1.9844.56,1.9645,1.9645,0,0,1,.6875,1.6162v5.04a.474.474,0,0,0,.1045.3418.3517.3517,0,0,0,.2637.1065.3554.3554,0,0,0,.2744-.1221.4924.4924,0,0,0,.1094-.3418v-.208h.1279v.208a.794.794,0,0,1-.2481.5879.8254.8254,0,0,1-.6.2441.6888.6888,0,0,1-.5156-.2265.8543.8543,0,0,1-.2363-.5576l-.08-1.3282h-.1279a3.5615,3.5615,0,0,1-.294.8477,2.4811,2.4811,0,0,1-.4257.6182,2.2887,2.2887,0,0,1-.5245.4023,2.2088,2.2088,0,0,1-.5722.2256,2.5706,2.5706,0,0,1-.584.0664,2.7848,2.7848,0,0,1-1.6856-.4561A1.4305,1.4305,0,0,1,29.3594,10.1445Zm1.0722,0a1.1971,1.1971,0,0,0,.3995.9395,1.44,1.44,0,0,0,.9921.3564,1.8135,1.8135,0,0,0,1.1582-.414,2.28,2.28,0,0,0,.4825-.5323,2.63,2.63,0,0,0,.332-.78,4.0111,4.0111,0,0,0,.124-1.0254v-.544H32.8633a2.7815,2.7815,0,0,0-1.8037.5137A1.8088,1.8088,0,0,0,30.4316,10.1445Z"/><path d="M36.3828,11.6963v-.1279h.4649a1.883,1.883,0,0,0,.2138-.01.4764.4764,0,0,0,.166-.0527.4314.4314,0,0,0,.126-.0938.5242.5242,0,0,0,.086-.1719,1.3944,1.3944,0,0,0,.0576-.2519c.0117-.0879.0224-.209.0322-.3623s.0156-.3106.0176-.4737.0049-.3681.0049-.6162V2.6084q0-.42-.0049-.6768c-.002-.17-.01-.3252-.0215-.4658a2.37,2.37,0,0,0-.042-.3115.4867.4867,0,0,0-.0742-.1719.2006.2006,0,0,0-.1055-.0859A.5751.5751,0,0,0,37.1514.88h-.6241V.7676h.7676a2.2111,2.2111,0,0,0,.416-.0371,1.7591,1.7591,0,0,0,.378-.1162A.6721.6721,0,0,0,38.373.39.56.56,0,0,0,38.48.0479V0h.1113V3.0078q0,.5727-.06,1.4346t-.11,1.3535q-.05.4922-.0693.668h.0957a4.2534,4.2534,0,0,1,.208-.8643,2.7957,2.7957,0,0,1,.9541-1.3613,2.3979,2.3979,0,0,1,1.4941-.51,2.3372,2.3372,0,0,1,1.6514.544,1.904,1.904,0,0,1,.5889,1.4716v3.792c0,.2481.0009.4532.0039.6162s.0078.32.0175.4737.02.2744.0323.3623a1.386,1.386,0,0,0,.0576.2519.5036.5036,0,0,0,.0859.1719.4341.4341,0,0,0,.126.0938.477.477,0,0,0,.166.0527,1.8837,1.8837,0,0,0,.2139.01h.48v.1279H41.1357v-.1279H41.6a1.8837,1.8837,0,0,0,.2139-.01.477.477,0,0,0,.166-.0527.4341.4341,0,0,0,.126-.0938.5072.5072,0,0,0,.0859-.1719,1.386,1.386,0,0,0,.0576-.2519c.0127-.0879.0225-.209.0322-.3623s.0157-.3106.0176-.4737.0049-.3681.0049-.6162V6.1123A2.9149,2.9149,0,0,0,41.9893,4.6a1.0886,1.0886,0,0,0-.9981-.5039,2.0613,2.0613,0,0,0-.9482.2246,2.3136,2.3136,0,0,0-.7618.626,2.98,2.98,0,0,0-.5058.9873,4.2541,4.2541,0,0,0-.1846,1.2822v2.32q0,.4923.0088.792c.0049.2.0176.3838.0381.55a1.85,1.85,0,0,0,.0713.3682.4915.4915,0,0,0,.1318.2.3955.3955,0,0,0,.1944.1016,1.49,1.49,0,0,0,.2763.0205h.4639v.1279Z"/><path d="M48.623,6.8643a5.0712,5.0712,0,0,1,.1661-1.292,4.924,4.924,0,0,1,.4668-1.1661,4.8125,4.8125,0,0,1,.73-.9824,4.7321,4.7321,0,0,1,.94-.7617A4.516,4.516,0,0,1,53.2793,2a7.42,7.42,0,0,1,1.1445.12,7.277,7.277,0,0,0,1.0157.12,2.437,2.437,0,0,0,.5917-.0644L56.127,5.584h-.2393l-.0322-1.1524a1.89,1.89,0,0,0-.25-.8955,2.2778,2.2778,0,0,0-.6162-.7041,3.048,3.048,0,0,0-.8536-.4463,3.0055,3.0055,0,0,0-.9687-.1621,2.9292,2.9292,0,0,0-1.76.5528A3.5387,3.5387,0,0,0,50.2256,4.334a6.0009,6.0009,0,0,0-.418,2.3222,7.2511,7.2511,0,0,0,.14,1.4561,5.1169,5.1169,0,0,0,.3906,1.1963,4.5279,4.5279,0,0,0,.5879.9238,3.2385,3.2385,0,0,0,.7373.666,3.357,3.357,0,0,0,.832.3916,2.9393,2.9393,0,0,0,.88.1338,3.5361,3.5361,0,0,0,1.7646-.4355,2.68,2.68,0,0,0,1.1475-1.2442l.2246.08A2.9049,2.9049,0,0,1,55.26,11.2979a3.7977,3.7977,0,0,1-1.9639.5107,4.7921,4.7921,0,0,1-2.4463-.6162,4.1986,4.1986,0,0,1-1.6445-1.74A5.5524,5.5524,0,0,1,48.623,6.8643Z"/><path d="M57.0225,11.6963v-.1279h.4648a1.8837,1.8837,0,0,0,.2139-.01.477.477,0,0,0,.166-.0527.4341.4341,0,0,0,.126-.0938.5243.5243,0,0,0,.0859-.1719,1.386,1.386,0,0,0,.0576-.2519c.0117-.0879.0225-.209.0322-.3623s.0157-.3106.0176-.4737.0049-.3681.0049-.6162V2.6084q0-.42-.0049-.6768c-.0019-.17-.01-.3252-.0215-.4658a2.3526,2.3526,0,0,0-.042-.3115.4867.4867,0,0,0-.0742-.1719.2.2,0,0,0-.1054-.0859A.5754.5754,0,0,0,57.791.88h-.624V.7676h.7676a2.2119,2.2119,0,0,0,.416-.0371,1.7565,1.7565,0,0,0,.3779-.1162A.6718.6718,0,0,0,59.0127.39a.56.56,0,0,0,.1064-.3417V0h.1114V3.0078q0,.5727-.06,1.4346t-.11,1.3535q-.05.4922-.0693.668h.0957a4.2667,4.2667,0,0,1,.208-.8643,2.7964,2.7964,0,0,1,.9541-1.3613,2.3982,2.3982,0,0,1,1.4942-.51,2.3371,2.3371,0,0,1,1.6513.544,1.904,1.904,0,0,1,.5889,1.4716v3.792q0,.3722.0039.6162c.002.1631.0078.32.0176.4737s.02.2744.0322.3623a1.3944,1.3944,0,0,0,.0576.2519.5053.5053,0,0,0,.086.1719.4322.4322,0,0,0,.1259.0938.4775.4775,0,0,0,.1661.0527,1.883,1.883,0,0,0,.2138.01h.4805v.1279H61.7754v-.1279h.4639a1.883,1.883,0,0,0,.2138-.01.4764.4764,0,0,0,.166-.0527.4314.4314,0,0,0,.126-.0938.5053.5053,0,0,0,.086-.1719,1.3944,1.3944,0,0,0,.0576-.2519c.0127-.0879.0224-.209.0322-.3623s.0156-.3106.0176-.4737.0049-.3681.0049-.6162V6.1123A2.9138,2.9138,0,0,0,62.6289,4.6a1.0885,1.0885,0,0,0-.998-.5039,2.062,2.062,0,0,0-.9483.2246,2.3123,2.3123,0,0,0-.7617.626,2.98,2.98,0,0,0-.5059.9873,4.2573,4.2573,0,0,0-.1845,1.2822v2.32q0,.4923.0088.792c.0048.2.0175.3838.038.55a1.8652,1.8652,0,0,0,.0713.3682.4927.4927,0,0,0,.1319.2.3952.3952,0,0,0,.1943.1016,1.49,1.49,0,0,0,.2764.0205h.4638v.1279Z"/><path d="M70.0947,11.8086a5.0818,5.0818,0,0,1-1.7519-.292,3.8993,3.8993,0,0,1-1.3574-.82,3.6352,3.6352,0,0,1-.8682-1.2822A4.3,4.3,0,0,1,65.8066,7.76a3.8289,3.8289,0,0,1,.836-2.38,4.6448,4.6448,0,0,1,.9267-.87,4.1747,4.1747,0,0,1,1.18-.5782,4.5011,4.5011,0,0,1,1.3457-.2031,5.0584,5.0584,0,0,1,1.752.292,3.899,3.899,0,0,1,1.3584.8174,3.6434,3.6434,0,0,1,.8681,1.2764,4.2782,4.2782,0,0,1,.31,1.6455,3.748,3.748,0,0,1-.34,1.5683,4.0823,4.0823,0,0,1-.9141,1.292,4.3247,4.3247,0,0,1-1.3682.8662A4.3878,4.3878,0,0,1,70.0947,11.8086Zm.0323-.24a2.9958,2.9958,0,0,0,1.63-.4463A2.9533,2.9533,0,0,0,72.8574,9.86a4.3029,4.3029,0,0,0,.39-1.876,4.655,4.655,0,0,0-.4326-2.0039,3.6915,3.6915,0,0,0-1.1719-1.458,2.6777,2.6777,0,0,0-1.6114-.5381,2.9756,2.9756,0,0,0-1.62.4414A2.9162,2.9162,0,0,0,67.3271,5.68a4.3388,4.3388,0,0,0-.3837,1.8721,4.8016,4.8016,0,0,0,.2519,1.5546,4.2888,4.2888,0,0,0,.6758,1.2823,3.2342,3.2342,0,0,0,1.0156.8593A2.568,2.568,0,0,0,70.127,11.5684Z"/><path d="M75.167,11.6963v-.1279h.4639a1.8593,1.8593,0,0,0,.2138-.01.4642.4642,0,0,0,.166-.0527.4073.4073,0,0,0,.126-.0938.4877.4877,0,0,0,.086-.1719,1.3869,1.3869,0,0,0,.0585-.2519c.0118-.0879.0225-.209.0323-.3623s.0146-.3106.0176-.4737.0039-.3681.0039-.6162V4.4482A.5029.5029,0,0,0,76.2168,4.1a.4.4,0,0,0-.3135-.1318h-.4961V3.84h1.6162a.257.257,0,0,1,.1856.0547.2557.2557,0,0,1,.0537.1856v.9922q0,.3442-.0313.71a2.5208,2.5208,0,0,1-.08.5059V6.32h.1113a3.9364,3.9364,0,0,1,.9062-1.91,2.0076,2.0076,0,0,1,1.51-.6817q1.1367,0,1.1367.752a.7058.7058,0,0,1-.1924.498.6132.6132,0,0,1-.4638.2051.6674.6674,0,0,1-.6426-.9111.5364.5364,0,0,1,.1143-.1924V4.0645a1.7038,1.7038,0,0,0-1.1778.4658,3.0087,3.0087,0,0,0-.7959,1.3174,6.2247,6.2247,0,0,0-.2822,1.96V9.5527c0,.3272.0029.5918.0078.792s.0186.3828.0381.55a1.8671,1.8671,0,0,0,.0723.3682.4947.4947,0,0,0,.1318.1992.4017.4017,0,0,0,.1943.1026,1.5005,1.5005,0,0,0,.2754.0195h.8487v.1123Z"/><path d="M80.9434,11.6963v-.1279h.4638a1.8837,1.8837,0,0,0,.2139-.01.5032.5032,0,0,0,.168-.0508.37.37,0,0,0,.1279-.0957.6108.6108,0,0,0,.0879-.17,1.2488,1.2488,0,0,0,.0625-.2481c.0127-.0888.0254-.208.0351-.3574s.0176-.3066.02-.4726.004-.3692.004-.6114V1.28a.4.4,0,0,0-.1036-.2959A.4009.4009,0,0,0,81.7266.88h-.6241V.7676h.7686a2.2461,2.2461,0,0,0,.42-.0371,1.8647,1.8647,0,0,0,.3819-.1162.6907.6907,0,0,0,.29-.2247.5551.5551,0,0,0,.1084-.3417V0h.0957V9.5527q0,.3633.0039.6114c.0029.166.01.3232.02.4726s.0225.2686.0352.3574a1.2352,1.2352,0,0,0,.0625.2481.6108.6108,0,0,0,.0879.17.3689.3689,0,0,0,.1279.0957.5026.5026,0,0,0,.168.0508,1.883,1.883,0,0,0,.2138.01h.48v.1279Z"/><path d="M87.0547,4.2881V9.9688a1.6974,1.6974,0,0,0,.3047,1.0556.9551.9551,0,0,0,.8.3994,1.2785,1.2785,0,0,0,1.0234-.4258,1.6815,1.6815,0,0,0,.3682-1.1416v-.4h.24v.4a2.069,2.069,0,0,1-.47,1.4161,1.5717,1.5717,0,0,1-1.2422.5361,1.999,1.999,0,0,1-1.4844-.5684,2.03,2.03,0,0,1-.5635-1.4961V4.2881h-1.6v-.336h.7685a1.241,1.241,0,0,0,.54-.12,1.3275,1.3275,0,0,0,.4218-.3095,2.6783,2.6783,0,0,0,.3018-.4121,2.2967,2.2967,0,0,0,.206-.4483,3.8927,3.8927,0,0,0,.11-.3945A1.3937,1.3937,0,0,0,86.8154,2V.5117h.2393v2.752c0,.3281-.0527.5146-.16.56V3.84H90.207l-.08.4483Z"/><path d="M95.0068,11.8086a5.0818,5.0818,0,0,1-1.7519-.292,3.8956,3.8956,0,0,1-1.3584-.82,3.65,3.65,0,0,1-.8682-1.2822A4.3181,4.3181,0,0,1,90.7188,7.76a3.8122,3.8122,0,0,1,.8359-2.38,4.6643,4.6643,0,0,1,.9258-.87,4.1866,4.1866,0,0,1,1.18-.5782,4.5065,4.5065,0,0,1,1.3466-.2031,5.0584,5.0584,0,0,1,1.752.292,3.8945,3.8945,0,0,1,1.3574.8174,3.63,3.63,0,0,1,.8682,1.2764A4.2617,4.2617,0,0,1,99.2949,7.76a3.7336,3.7336,0,0,1-.3408,1.5683,4.0938,4.0938,0,0,1-.9131,1.292,4.3254,4.3254,0,0,1-1.3681.8662A4.3883,4.3883,0,0,1,95.0068,11.8086Zm.0313-.24a2.9969,2.9969,0,0,0,1.6308-.4463,2.9521,2.9521,0,0,0,1.1-1.2617,4.3043,4.3043,0,0,0,.39-1.876,4.6544,4.6544,0,0,0-.4316-2.0039,3.7071,3.7071,0,0,0-1.1719-1.458,2.6805,2.6805,0,0,0-1.6123-.5381,2.9754,2.9754,0,0,0-1.62.4414A2.9155,2.9155,0,0,0,92.2383,5.68a4.3373,4.3373,0,0,0-.3838,1.8721,4.8043,4.8043,0,0,0,.2519,1.5546,4.3116,4.3116,0,0,0,.6758,1.2823,3.2489,3.2489,0,0,0,1.0166.8593A2.5645,2.5645,0,0,0,95.0381,11.5684Z"/><path d="M100.0781,11.6963v-.1279h.4639a1.8623,1.8623,0,0,0,.2139-.01.4648.4648,0,0,0,.166-.0527.4086.4086,0,0,0,.126-.0938.49.49,0,0,0,.0859-.1719,1.3954,1.3954,0,0,0,.0586-.2519c.0117-.0879.0224-.209.0322-.3623s.0147-.3106.0176-.4737.0039-.3681.0039-.6162V4.624a.5217.5217,0,0,0-.1065-.3564.3361.3361,0,0,0-.2617-.1192.3445.3445,0,0,0-.2715.13.508.508,0,0,0-.1123.3457V5.12h-.1279V4.624a.7563.7563,0,0,1,.2617-.6123.9536.9536,0,0,1,.6338-.22.9218.9218,0,0,1,.5762.1836.6188.6188,0,0,1,.24.5205v.5762q0,.2152-.01.7617t-.0225.63h.0967a4.4609,4.4609,0,0,1,.2236-.8643,2.7992,2.7992,0,0,1,.9483-1.3633,2.3685,2.3685,0,0,1,1.4834-.5078,2.3381,2.3381,0,0,1,1.6523.544,1.9068,1.9068,0,0,1,.5879,1.4716v3.792q0,.3722.0039.6162c.0029.1631.0088.32.0185.4737s.02.2744.0313.3623a1.387,1.387,0,0,0,.0586.2519.49.49,0,0,0,.0859.1719.4086.4086,0,0,0,.126.0938.4642.4642,0,0,0,.166.0527,1.873,1.873,0,0,0,.2139.01h.3516v.1279H104.83v-.1279h.4638a1.86,1.86,0,0,0,.2139-.01.4642.4642,0,0,0,.166-.0527.4086.4086,0,0,0,.126-.0938.4862.4862,0,0,0,.0859-.1719,1.3083,1.3083,0,0,0,.0586-.2519c.0118-.0879.0225-.209.0323-.3623s.0146-.3106.0175-.4737.0039-.3681.0039-.6162V6.1123A2.915,2.915,0,0,0,105.6846,4.6a1.09,1.09,0,0,0-.9981-.5039,2.0586,2.0586,0,0,0-.9482.2246,2.2923,2.2923,0,0,0-.7617.626,2.9983,2.9983,0,0,0-.5069.9873,4.2894,4.2894,0,0,0-.1836,1.2822v2.32q0,.4923.0078.792c.0059.2.0186.3838.0381.55a1.8431,1.8431,0,0,0,.0723.3682.4925.4925,0,0,0,.1318.2.3914.3914,0,0,0,.1944.1016,1.4859,1.4859,0,0,0,.2754.0205h.48v.1279Z"/></svg>